<?xml version="1.0" ?><!-- Uploaded to: SVG Repo, www.svgrepo.com, Generator: SVG Repo Mixer Tools -->
<svg width="800px" height="800px" viewBox="0 0 512 512" enable-background="new 0 0 512 512" id="flat" version="1.1" xml:space="preserve" xmlns="http://www.w3.org/2000/svg" xmlns:xlink="http://www.w3.org/1999/xlink"><path d="M234.689,246.815c0-105.871,66.348-196.23,159.726-231.81C375.598,10.438,355.949,8,335.726,8  c-136.967,0-248,111.033-248,248s111.033,248,248,248c31.096,0,60.847-5.74,88.274-16.19  C315.364,461.445,234.689,363.559,234.689,246.815z" fill="#FFD572"/><path d="M490.489,190.575c-4.311-8.303-15.394-13.525-25.26-11.903l0,0c-9.208,1.514-18.79,1.997-28.503,1.464  c-6.255-0.344-11.517-5.326-10.89-10.239l2.502-19.589l-9.848,3.133c-6.934,2.206-15.775-0.947-19.748-7.043l-5.643-8.658  l-10.458,16.75c-2.649,4.243-9.928,4.682-15.033,0.949c-7.81-5.711-14.883-12.118-21.022-19.081l0,0  c-6.613-7.5-18.499-10.47-27.091-6.769l-26.93,11.6l0,0c17.516,6.247,27.861,22.12,23.105,35.452l-1.913,5.365l3.524,1.257  c11.677,4.165,18.574,14.746,15.404,23.635l0,0l21.144,7.541c15.57,5.553,24.765,19.662,20.538,31.513  c4.227-11.851,20.275-16.957,35.845-11.404l21.144,7.541l0,0c3.17-8.889,15.206-12.718,26.884-8.553l3.524,1.257l1.913-5.365  c4.755-13.333,22.809-19.077,40.325-12.83h0L490.489,190.575z" fill="#4D5166"/><path d="M184.069,334.029c-8.886-2.925-20.463,1.086-26.385,9.143l0,0c-5.527,7.519-12.042,14.562-19.361,20.969  c-4.714,4.126-11.959,4.241-14.945,0.288l-11.902-15.758l-4.853,9.124c-3.417,6.424-11.944,10.349-19.046,8.766l-10.087-2.248  l4.228,19.289c1.071,4.886-3.828,10.288-10.088,11.187c-9.577,1.375-19.113,1.736-28.371,1.047h0  c-9.971-0.742-20.548,5.442-24.106,14.095L8,437.048h0c16.893-7.775,35.386-3.654,41.304,9.205l2.381,5.174l3.399-1.564  c11.262-5.183,23.59-2.436,27.536,6.137l0,0l20.392-9.385c15.016-6.911,31.454-3.248,36.715,8.182  c-5.261-11.43,2.648-26.299,17.664-33.21l20.392-9.385l0,0c-3.945-8.573,1.986-19.724,13.248-24.907l3.399-1.564l-2.381-5.174  c-5.918-12.859,2.979-29.586,19.872-37.361l0,0L184.069,334.029z" fill="#4D5166"/><path d="M432,304L432,304c17.673,0,32,14.327,32,32v0c0,0,0,0,0,0c0-17.673,14.327-32,32-32c0,0,0,0,0,0h0  c-17.673,0-32-14.327-32-32c0,0,0,0,0,0v0C464,289.673,449.673,304,432,304C432,304,432,304,432,304z" fill="#E65C64"/><path d="M272,296L272,296c17.673,0,32,14.327,32,32v0c0,0,0,0,0,0c0-17.673,14.327-32,32-32c0,0,0,0,0,0h0  c-17.673,0-32-14.327-32-32c0,0,0,0,0,0v0C304,281.673,289.673,296,272,296C272,296,272,296,272,296z" fill="#E65C64"/><path d="M16,56L16,56c17.673,0,32,14.327,32,32v0c0,0,0,0,0,0c0-17.673,14.327-32,32-32c0,0,0,0,0,0h0  c-17.673,0-32-14.327-32-32c0,0,0,0,0,0v0C48,41.673,33.673,56,16,56C16,56,16,56,16,56z" fill="#E65C64"/><polygon fill="#E6C067" points="464,52.792 473.889,72.828 496,76.041 480,91.637 483.777,113.659 464,103.262 444.223,113.659   448,91.637 432,76.041 454.111,72.828 "/><polygon fill="#CDAB5C" points="84.529,120 103.233,157.899 145.057,163.977 114.793,193.477 121.937,235.132 84.529,215.465   47.12,235.132 54.264,193.477 24,163.977 65.824,157.899 "/><polygon fill="#CDAB5C" points="411.471,328 430.176,365.899 472,371.977 441.736,401.477 448.88,443.132 411.471,423.465   374.063,443.132 381.207,401.477 350.943,371.977 392.767,365.899 "/></svg>